<svg xmlns="http://www.w3.org/2000/svg"  viewBox="0 0 24 24" width="24px" height="24px" fill-rule="evenodd" clip-rule="evenodd"><path d="M11.491,21.57c-0,0 -5.412,-5.006 -7.342,-6.876c-1.04,-0.964 -1.83,-2.166 -2.301,-3.495c-1.351,-3.523 -0.241,-5.872 1.564,-7.542c2.105,-1.947 6.143,-2.179 8.588,1.034c2.445,-3.213 6.483,-2.981 8.588,-1.034c1.804,1.669 2.913,4.016 1.567,7.535c-0.474,1.336 -1.264,2.538 -2.304,3.502c-1.93,1.87 -7.342,6.876 -7.342,6.876c-0.287,0.266 -0.731,0.266 -1.018,0Zm0.509,-1.573c1.391,-1.288 5.253,-4.874 6.813,-6.385c0.004,-0.004 0.008,-0.008 0.012,-0.012c0.867,-0.802 1.526,-1.804 1.919,-2.917c0.002,-0.007 0.004,-0.013 0.007,-0.02c1.057,-2.755 0.23,-4.599 -1.182,-5.905c-1.731,-1.602 -5.178,-1.529 -6.909,1.674c-0.131,0.242 -0.385,0.393 -0.66,0.393c-0.275,0 -0.529,-0.151 -0.66,-0.393c-1.731,-3.203 -5.178,-3.276 -6.909,-1.674c-1.412,1.306 -2.239,3.15 -1.182,5.905c0.003,0.007 0.005,0.013 0.007,0.02c0.393,1.113 1.052,2.115 1.919,2.917c0.004,0.004 0.008,0.008 0.012,0.012c1.56,1.511 5.422,5.097 6.813,6.385Z"/></svg>