<svg xmlns="http://www.w3.org/2000/svg"  viewBox="0 0 480.01 480.01" width="60px" height="60px"><path d="M 442.06055 0.01171875 C 438.57697 0.10082617 435.00064 0.69379687 431.40039 1.8574219 L 25.707031 133.00781 C 10.311031 137.98581 0.22095313 151.65594 0.001953125 167.83594 C -0.058046875 172.25294 3.4765312 175.88141 7.8945312 175.94141 C 12.263531 175.98541 15.941953 172.46978 16.001953 168.05078 C 16.100953 160.72378 19.994906 151.66942 30.628906 148.23242 L 436.32227 17.080078 C 452.75527 11.765078 468.23773 27.264547 462.92773 43.685547 L 331.77539 449.37891 C 325.52939 468.70091 298.464 468.92088 291.75 449.92188 L 229.32812 273.31445 C 225.57212 262.68645 217.32331 254.43669 206.69531 250.67969 L 51.607422 195.86523 C 47.441422 194.39123 42.871437 196.57523 41.398438 200.74023 C 39.926437 204.90623 42.109391 209.47722 46.275391 210.94922 L 201.36133 265.76562 C 207.40933 267.90263 212.10519 272.59653 214.24219 278.64453 L 276.66211 455.25195 C 288.50911 488.76695 336.085 488.06278 347 454.30078 L 478.15234 48.607422 C 486.29597 23.412672 466.44555 -0.6120332 442.06055 0.01171875 z M 416.49805 55.509766 C 414.4508 55.509766 412.4043 56.291516 410.8418 57.853516 L 279.11523 189.57812 C 274.05923 194.63413 277.71144 203.23438 284.77344 203.23438 C 286.82144 203.23438 288.86769 202.45458 290.42969 200.89258 L 422.15625 69.166016 C 425.28025 66.042016 425.28025 60.977516 422.15625 57.853516 C 420.59375 56.291516 418.5453 55.509766 416.49805 55.509766 z M 252.80664 219.20312 C 250.75939 219.20312 248.71094 219.98487 247.14844 221.54688 L 244.3418 224.35352 C 239.2858 229.40952 242.93605 238.00977 249.99805 238.00977 C 252.04505 238.00977 254.09325 237.22802 255.65625 235.66602 L 258.46289 232.85938 C 261.58689 229.73538 261.58689 224.67088 258.46289 221.54688 C 256.90039 219.98487 254.85389 219.20312 252.80664 219.20312 z M 111.3457 284.01562 C 110.81497 283.99327 110.27314 284.02333 109.72852 284.11133 L 84.199219 288.21484 C 79.837219 288.91584 76.869313 293.02081 77.570312 297.38281 C 78.202312 301.31581 81.598031 304.11328 85.457031 304.11328 C 86.386031 304.11328 84.568578 304.3592 112.26758 299.9082 C 116.62958 299.2072 119.59748 295.10223 118.89648 290.74023 C 118.28311 286.92261 115.06082 284.17213 111.3457 284.01562 z M 57.160156 292.72461 C 56.628811 292.70186 56.086766 292.73294 55.541016 292.82031 L 53.728516 293.11133 C 49.366516 293.81233 46.398609 297.9173 47.099609 302.2793 C 47.800609 306.6433 51.904578 309.6072 56.267578 308.9082 L 58.078125 308.61719 C 62.440125 307.91619 65.409984 303.81122 64.708984 299.44922 C 64.095609 295.63247 60.879576 292.88387 57.160156 292.72461 z M 120.99805 351.00977 C 118.9508 351.00977 116.9038 351.79152 115.3418 353.35352 L 106.85742 361.83789 C 103.73242 364.96189 103.73242 370.02639 106.85742 373.15039 C 109.98242 376.27539 115.04787 376.27439 118.17188 373.15039 L 126.6543 364.66602 C 129.7793 361.54202 129.7793 356.47752 126.6543 353.35352 C 125.0923 351.79152 123.0453 351.00977 120.99805 351.00977 z M 187.65039 361.01562 C 183.93193 361.17374 180.71298 363.92348 180.09961 367.74023 L 179.9668 368.57227 C 179.1888 373.40927 182.91305 377.84375 187.87305 377.84375 C 191.73205 377.84375 195.13167 375.04528 195.76367 371.11328 L 195.89648 370.2793 C 196.59748 365.9163 193.62958 361.81233 189.26758 361.11133 C 188.72208 361.0237 188.1816 360.99304 187.65039 361.01562 z M 89.03125 382.97852 C 86.984 382.97852 84.935047 383.75831 83.373047 385.32031 L 72.341797 396.35352 C 69.216797 399.47752 69.216797 404.54202 72.341797 407.66602 C 75.466797 410.79102 80.530297 410.79002 83.654297 407.66602 L 94.6875 396.63477 C 97.8125 393.51077 97.8125 388.44431 94.6875 385.32031 C 93.1255 383.75831 91.0785 382.97852 89.03125 382.97852 z M 182.70508 391.79297 C 178.98757 391.95108 175.76767 394.70083 175.1543 398.51758 L 171.09961 423.74023 C 170.32161 428.57723 174.04781 433.01172 179.00781 433.01172 C 182.86681 433.01172 186.26448 430.2113 186.89648 426.2793 L 190.95117 401.05859 C 191.65217 396.69559 188.68427 392.58967 184.32227 391.88867 C 183.77702 391.80105 183.23615 391.77038 182.70508 391.79297 z"/></svg>