<svg xmlns="http://www.w3.org/2000/svg"  viewBox="0 0 24 24" width="24px" height="24px"><path d="M 8.0722656 0.99804688 C 8.0677604 0.99772546 8.0631082 1.0002594 8.0585938 1 L 6.5 1 C 3.46 1 1 3.46 1 6.5 L 1 8 L 1 17.5 C 1 20.53 3.46 23 6.5 23 L 17.5 23 C 20.53 23 23 20.53 23 17.5 L 23 8 L 23 6.5 C 23 3.46 20.53 1 17.5 1 L 14.083984 1 C 14.076771 0.99942495 14.069737 1.0004158 14.0625 1 L 8.0800781 1 C 8.0773644 0.99978366 8.0749828 0.99824073 8.0722656 0.99804688 z M 6.5 3 L 7.2617188 3 L 8.5957031 7 L 3 7 L 3 6.5 C 3 4.56 4.56 3 6.5 3 z M 9.3789062 3 L 13.265625 3 L 14.599609 7 L 10.712891 7 L 9.3789062 3 z M 15.382812 3 L 17.5 3 C 19.43 3 21 4.56 21 6.5 L 21 7 L 16.716797 7 L 15.382812 3 z M 3 9 L 21 9 L 21 17.5 C 21 19.43 19.43 21 17.5 21 L 6.5 21 C 4.56 21 3 19.43 3 17.5 L 3 9 z M 9.5527344 9.9960938 C 9.3752344 9.9848437 9.1942969 10.023281 9.0292969 10.113281 L 9 10.072266 C 8.67 10.242266 8.4707031 10.582891 8.4707031 10.962891 L 8.4707031 17.962891 C 8.4707031 18.332891 8.6697656 18.673516 9.0097656 18.853516 C 9.3397656 19.033516 9.7407812 19.002969 10.050781 18.792969 L 15.050781 15.292969 C 15.320781 15.112969 15.480469 14.802422 15.480469 14.482422 C 15.480469 14.162422 15.320547 13.853828 15.060547 13.673828 L 10.060547 10.173828 C 9.9055469 10.068828 9.7302344 10.007344 9.5527344 9.9960938 z M 10.480469 12.902344 L 12.740234 14.482422 L 10.490234 16.0625 L 10.490234 12.912109 L 10.480469 12.902344 z"/></svg>