<svg xmlns="http://www.w3.org/2000/svg"  viewBox="0 0 24 24" width="24px" height="24px" fill-rule="evenodd" clip-rule="evenodd"><path d="M12,1.75c5.954,0 10.75,4.392 10.75,9.75c0,2.595 -1.119,4.959 -2.953,6.711l0.446,3.185c0.038,0.276 -0.079,0.551 -0.305,0.713c-0.227,0.163 -0.524,0.186 -0.773,0.062c-0,-0 -3.207,-1.604 -3.207,-1.604c-1.224,0.44 -2.56,0.683 -3.958,0.683c-5.954,0 -10.75,-4.392 -10.75,-9.75c-0,-5.358 4.796,-9.75 10.75,-9.75Zm-0,1.5c-5.085,0 -9.25,3.674 -9.25,8.25c-0,4.576 4.165,8.25 9.25,8.25c1.324,0 2.584,-0.249 3.725,-0.698c0.198,-0.078 0.42,-0.068 0.61,0.027l2.225,1.112l-0.303,-2.162c-0.035,-0.25 0.058,-0.5 0.247,-0.666c1.69,-1.492 2.746,-3.566 2.746,-5.863c0,-4.576 -4.165,-8.25 -9.25,-8.25Z"/></svg>