<svg xmlns="http://www.w3.org/2000/svg"  viewBox="0 0 24 24" width="24px" height="24px" fill-rule="evenodd" clip-rule="evenodd"><path d="M20.25,4l0,17.066c0,0.461 -0.254,0.884 -0.66,1.102c-0.407,0.217 -0.9,0.194 -1.283,-0.062l-5.614,-3.742c-0.419,-0.28 -0.967,-0.28 -1.386,-0l-5.614,3.742c-0.383,0.256 -0.876,0.279 -1.283,0.062c-0.406,-0.218 -0.66,-0.641 -0.66,-1.102l0,-17.066c-0,-0.729 0.29,-1.429 0.805,-1.945c0.516,-0.515 1.216,-0.805 1.945,-0.805l11,-0c0.729,-0 1.429,0.29 1.945,0.805c0.515,0.516 0.805,1.216 0.805,1.945Zm-15,16.599l5.225,-3.483c0.923,-0.616 2.127,-0.616 3.05,-0l5.225,3.483l0,-16.599c0,-0.332 -0.132,-0.649 -0.366,-0.884c-0.235,-0.234 -0.552,-0.366 -0.884,-0.366l-11,-0c-0.332,-0 -0.649,0.132 -0.884,0.366c-0.234,0.235 -0.366,0.552 -0.366,0.884l-0,16.599Z"/></svg>