<svg xmlns="http://www.w3.org/2000/svg" viewBox="0 0 48 48" xmlns:xlink="http://www.w3.org/1999/xlink" xml:space="preserve" width="100%" height="100%"><g xmlns="http://www.w3.org/2000/svg" transform="scale(1.33333)"><path d="M32 29H4a1 1 0 0 1 0-2h28a1 1 0 0 1 0 2" class="clr-i-outline clr-i-outline-path-1"></path><path d="M32 19H4a1 1 0 0 1 0-2h28a1 1 0 0 1 0 2" class="clr-i-outline clr-i-outline-path-2"></path><path d="M32 9H4a1 1 0 0 1 0-2h28a1 1 0 0 1 0 2" class="clr-i-outline clr-i-outline-path-3"></path><path fill="none" d="M0 0h36v36H0z"></path></g></svg>