<svg xmlns="http://www.w3.org/2000/svg" viewBox="0 0 48 48" xmlns:xlink="http://www.w3.org/1999/xlink" xml:space="preserve" width="100%" height="100%"><path xmlns="http://www.w3.org/2000/svg" fill="#000" d="M35.384 22.248a18 18 0 0 0-.63-.286c-.37-6.828-4.1-10.736-10.364-10.776h-.084c-3.746 0-6.862 1.6-8.78 4.51l3.444 2.362c1.432-2.174 3.68-2.636 5.338-2.636h.056c2.062.012 3.62.612 4.626 1.78.734.852 1.224 2.03 1.466 3.514a26.4 26.4 0 0 0-5.92-.286c-5.954.344-9.784 3.818-9.526 8.644.13 2.446 1.35 4.554 3.434 5.928 1.76 1.164 4.03 1.732 6.388 1.604 3.116-.17 5.56-1.36 7.264-3.532 1.294-1.65 2.112-3.788 2.474-6.482 1.484.896 2.584 2.074 3.192 3.49 1.032 2.41 1.092 6.368-2.136 9.594-2.83 2.828-6.232 4.05-11.372 4.088-5.702-.04-10.016-1.87-12.82-5.434C8.808 34.99 7.452 30.17 7.402 24c.05-6.17 1.406-10.992 4.032-14.33 2.804-3.564 7.116-5.392 12.82-5.434 5.742.04 10.13 1.88 13.042 5.46 1.428 1.758 2.504 3.966 3.214 6.54l4.036-1.076c-.86-3.17-2.214-5.9-4.054-8.166C36.76 2.4 31.3.048 24.268 0h-.028C17.22.048 11.824 2.41 8.198 7.02c-3.228 4.1-4.892 9.808-4.948 16.964v.032c.056 7.156 1.72 12.862 4.948 16.964 3.626 4.61 9.022 6.972 16.04 7.02h.03c6.24-.044 10.638-1.676 14.26-5.298 4.742-4.736 4.6-10.672 3.036-14.316-1.12-2.614-3.258-4.736-6.18-6.14M24.61 32.374c-2.61.148-5.32-1.024-5.456-3.532-.1-1.86 1.324-3.938 5.616-4.184q.738-.044 1.448-.042c1.56 0 3.016.15 4.342.44-.494 6.176-3.394 7.18-5.95 7.32"></path></svg>