<svg xmlns="http://www.w3.org/2000/svg" viewBox="0 0 48 48" xmlns:xlink="http://www.w3.org/1999/xlink" xml:space="preserve" width="100%" height="100%"><path xmlns="http://www.w3.org/2000/svg" fill="#000" d="M26.362 42.5a1.5 1.5 0 0 1-1.5 1.5H9.584a1.5 1.5 0 0 1-1.5-1.5c0-8.21 9.008-14.578 16.758-14.578a1.5 1.5 0 0 1 1.5 1.502zm7.95-24.348a10 10 0 0 1-3.784 4.586 10.19 10.19 0 0 1-12.894-1.276 10.2 10.2 0 0 1-2.984-7.234 10.2 10.2 0 0 1 1.722-5.686 10.34 10.34 0 0 1 4.604-3.764A10.24 10.24 0 0 1 32.128 7a10 10 0 0 1 2.784 5.246c.394 1.984.184 4.04-.6 5.906m5.604 17.82a1.48 1.48 0 0 1-1.5 1.5h-2.724v2.704a1.501 1.501 0 0 1-3.002 0v-2.722h-2.724a1.502 1.502 0 0 1 0-3.004h2.804v-2.724a1.502 1.502 0 0 1 3.002 0v2.724h2.724a1.5 1.5 0 0 1 1.42 1.52"></path></svg>